<mxfile host="Electron" modified="2024-03-08T16:43:17.338Z" agent="Mozilla/5.0 (Windows NT 10.0; Win64; x64) AppleWebKit/537.36 (KHTML, like Gecko) draw.io/23.1.5 Chrome/120.0.6099.109 Electron/28.1.0 Safari/537.36" etag="qZK0BsP2Q2pjHL7cFbaz" version="23.1.5" type="device">
  <diagram name="Page-1" id="GeZ4q9c_LSWayCHz3ktu">
    <mxGraphModel dx="794" dy="519" grid="1" gridSize="10" guides="1" tooltips="1" connect="1" arrows="1" fold="1" page="1" pageScale="1" pageWidth="850" pageHeight="1100" math="0" shadow="0">
      <root>
        <mxCell id="0" />
        <mxCell id="1" parent="0" />
        <mxCell id="D4617x1Ep0FOKEcwXozs-3" value="PARA CEKER" style="ellipse;whiteSpace=wrap;html=1;fillColor=#dae8fc;strokeColor=#6c8ebf;" parent="1" vertex="1">
          <mxGeometry x="355" y="60" width="120" height="80" as="geometry" />
        </mxCell>
        <mxCell id="D4617x1Ep0FOKEcwXozs-4" value="PARA YATIRIR" style="ellipse;whiteSpace=wrap;html=1;fillColor=#dae8fc;strokeColor=#6c8ebf;" parent="1" vertex="1">
          <mxGeometry x="355" y="150" width="120" height="80" as="geometry" />
        </mxCell>
        <mxCell id="D4617x1Ep0FOKEcwXozs-5" value="BAKIYEYI&lt;br&gt;KONTROL EDER" style="ellipse;whiteSpace=wrap;html=1;fillColor=#dae8fc;strokeColor=#6c8ebf;" parent="1" vertex="1">
          <mxGeometry x="365" y="250" width="120" height="80" as="geometry" />
        </mxCell>
        <mxCell id="D4617x1Ep0FOKEcwXozs-6" value="Islemi yetkilendir" style="ellipse;whiteSpace=wrap;html=1;fillColor=#fff2cc;strokeColor=#d6b656;" parent="1" vertex="1">
          <mxGeometry x="355" y="390" width="120" height="80" as="geometry" />
        </mxCell>
        <mxCell id="D4617x1Ep0FOKEcwXozs-7" value="Hesap gunceleme" style="ellipse;whiteSpace=wrap;html=1;fillColor=#fff2cc;strokeColor=#d6b656;" parent="1" vertex="1">
          <mxGeometry x="355" y="480" width="120" height="80" as="geometry" />
        </mxCell>
        <mxCell id="D4617x1Ep0FOKEcwXozs-10" value="BANAK" style="text;html=1;align=center;verticalAlign=middle;whiteSpace=wrap;rounded=0;" parent="1" vertex="1">
          <mxGeometry x="110" y="500" width="60" height="30" as="geometry" />
        </mxCell>
        <mxCell id="D4617x1Ep0FOKEcwXozs-11" value="" style="html=1;image=img/lib/clip_art/people/Suit_Man_128x128.png;shape=umlActor;verticalLabelPosition=bottom;verticalAlign=top;fillColor=#dae8fc;strokeColor=#6c8ebf;" parent="1" vertex="1">
          <mxGeometry x="110" y="200" width="60" height="80" as="geometry" />
        </mxCell>
        <mxCell id="D4617x1Ep0FOKEcwXozs-12" value="Musteri" style="text;html=1;align=center;verticalAlign=middle;whiteSpace=wrap;rounded=0;" parent="1" vertex="1">
          <mxGeometry x="110" y="290" width="60" height="30" as="geometry" />
        </mxCell>
        <mxCell id="6SgIyJHCmq6SgbA7mmcv-4" value="" style="html=1;image=img/lib/clip_art/people/Suit_Man_128x128.png;shape=umlActor;verticalLabelPosition=bottom;verticalAlign=top;fillColor=#fff2cc;strokeColor=#d6b656;" vertex="1" parent="1">
          <mxGeometry x="110" y="420" width="60" height="80" as="geometry" />
        </mxCell>
        <mxCell id="6SgIyJHCmq6SgbA7mmcv-6" value="" style="edgeStyle=none;html=1;endArrow=none;verticalAlign=bottom;rounded=0;exitX=1;exitY=0.3333333333333333;exitDx=0;exitDy=0;exitPerimeter=0;" edge="1" parent="1" source="D4617x1Ep0FOKEcwXozs-11" target="D4617x1Ep0FOKEcwXozs-3">
          <mxGeometry width="160" relative="1" as="geometry">
            <mxPoint x="140" y="130" as="sourcePoint" />
            <mxPoint x="300" y="130" as="targetPoint" />
          </mxGeometry>
        </mxCell>
        <mxCell id="6SgIyJHCmq6SgbA7mmcv-7" value="" style="edgeStyle=none;html=1;endArrow=none;verticalAlign=bottom;rounded=0;entryX=0;entryY=0;entryDx=0;entryDy=0;" edge="1" parent="1" source="D4617x1Ep0FOKEcwXozs-11" target="D4617x1Ep0FOKEcwXozs-5">
          <mxGeometry width="160" relative="1" as="geometry">
            <mxPoint x="165" y="218" as="sourcePoint" />
            <mxPoint x="374" y="131" as="targetPoint" />
          </mxGeometry>
        </mxCell>
        <mxCell id="6SgIyJHCmq6SgbA7mmcv-8" value="" style="edgeStyle=none;html=1;endArrow=none;verticalAlign=bottom;rounded=0;" edge="1" parent="1" source="D4617x1Ep0FOKEcwXozs-11" target="D4617x1Ep0FOKEcwXozs-4">
          <mxGeometry width="160" relative="1" as="geometry">
            <mxPoint x="175" y="228" as="sourcePoint" />
            <mxPoint x="384" y="141" as="targetPoint" />
          </mxGeometry>
        </mxCell>
        <mxCell id="6SgIyJHCmq6SgbA7mmcv-9" value="" style="edgeStyle=none;html=1;endArrow=none;verticalAlign=bottom;rounded=0;" edge="1" parent="1" target="D4617x1Ep0FOKEcwXozs-7">
          <mxGeometry width="160" relative="1" as="geometry">
            <mxPoint x="170" y="471.5" as="sourcePoint" />
            <mxPoint x="383" y="490.5" as="targetPoint" />
          </mxGeometry>
        </mxCell>
        <mxCell id="6SgIyJHCmq6SgbA7mmcv-10" value="" style="edgeStyle=none;html=1;endArrow=none;verticalAlign=bottom;rounded=0;" edge="1" parent="1">
          <mxGeometry width="160" relative="1" as="geometry">
            <mxPoint x="170" y="463.5" as="sourcePoint" />
            <mxPoint x="357" y="429.5" as="targetPoint" />
          </mxGeometry>
        </mxCell>
      </root>
    </mxGraphModel>
  </diagram>
</mxfile>
